<svg xmlns="http://www.w3.org/2000/svg" width="1024" height="1024" viewBox="0 0 1024 1024" version="1.1"><path d="M 137 1.039 C 135.075 1.484, 131.700 2.374, 129.500 3.017 C 127.300 3.660, 124.033 4.419, 122.241 4.704 C 120.448 4.988, 118.734 5.621, 118.432 6.110 C 118.129 6.600, 116.874 7, 115.641 7 C 114.408 7, 112.973 7.372, 112.450 7.826 C 111.928 8.280, 109.475 9.272, 107 10.029 C 99.894 12.204, 79.261 22.469, 77 24.954 C 76.725 25.256, 75.193 26.177, 73.595 27.002 C 69.477 29.125, 50.577 45.503, 43.777 52.839 C 40.630 56.235, 36.130 61.598, 33.777 64.756 C 31.425 67.915, 29.163 70.650, 28.750 70.833 C 28.338 71.017, 28 71.719, 28 72.395 C 28 73.070, 27.213 74.514, 26.250 75.604 C 22.660 79.668, 14.789 94.651, 11.070 104.500 C 9.824 107.800, 8.444 111.400, 8.003 112.500 C 6.808 115.484, 5.379 119.956, 4.012 125 C 3.341 127.475, 2.411 130.484, 1.946 131.687 C 1.481 132.890, 0.875 138.515, 0.600 144.187 C 0.115 154.189, 0.128 154.274, 1.042 147 C 4.576 118.892, 16.757 88.989, 33.833 66.500 C 44.078 53.007, 62.726 35.634, 76.500 26.751 C 96.667 13.744, 124.112 3.793, 147.230 1.105 L 154.500 0.259 147.500 0.245 C 143.650 0.237, 138.925 0.594, 137 1.039 M 875 0.933 C 888.567 2.930, 890.482 3.097, 889 2.156 C 888.175 1.632, 883.450 0.961, 878.500 0.664 C 871.741 0.258, 870.870 0.325, 875 0.933 M 902 6.457 C 920.544 11.879, 930.206 16.221, 946.232 26.332 C 958.280 33.934, 968.072 42.143, 979.340 54.088 C 990.126 65.522, 997.583 76.084, 1005.534 91.194 C 1012.100 103.672, 1012.759 103.468, 1006.502 90.896 C 996.888 71.580, 982.026 52.776, 965.512 39.036 C 956.886 31.859, 945.715 24, 944.138 24 C 943.604 24, 943.017 23.663, 942.833 23.250 C 942.085 21.565, 924.414 12.449, 917.500 10.180 C 915.300 9.458, 912.600 8.499, 911.500 8.048 C 910.400 7.597, 907.475 6.680, 905 6.010 C 902.525 5.340, 899.466 4.389, 898.203 3.896 C 896.940 3.403, 894.690 3.021, 893.203 3.047 C 891.716 3.073, 895.675 4.607, 902 6.457 M 1020.117 131.669 C 1020.637 133.776, 1021.717 139.550, 1022.518 144.500 L 1023.974 153.500 1023.498 145.500 C 1023.054 138.037, 1021.311 129.978, 1019.819 128.486 C 1019.463 128.130, 1019.597 129.562, 1020.117 131.669 M 245.976 432.187 C 245.963 493.409, 245.892 550.700, 245.817 559.500 C 245.743 568.300, 245.753 603.288, 245.841 637.250 L 246 699 289 699 L 332 699 332 548.463 L 332 397.925 378.750 398.220 C 424.313 398.508, 425.670 398.573, 432.208 400.785 C 449.441 406.615, 457.642 419.229, 458.682 441.500 C 459.775 464.933, 452.528 481.574, 438 488.992 C 428.568 493.808, 424.889 494.298, 393.500 494.912 L 363.500 495.500 363.238 532.750 L 362.976 570 391.738 569.989 C 441.134 569.971, 463.020 566.251, 485.700 554.019 C 504.755 543.743, 519.888 528.024, 530.005 508 C 540.439 487.348, 545.493 457.579, 543.083 430.968 C 540.054 397.514, 530.370 374.562, 511.343 355.741 C 497.231 341.781, 486.633 335.461, 465.755 328.556 C 444.428 321.503, 447.072 321.658, 341.250 321.245 L 246 320.873 245.976 432.187 M 500 321.411 C 500 321.602, 503.487 324.383, 507.750 327.591 C 517.922 335.247, 531.327 348.942, 537.765 358.254 C 544.756 368.367, 552.337 383.371, 554.508 391.392 L 556.297 398 612.898 398.015 C 673.899 398.031, 676.594 398.227, 686.789 403.393 C 692.581 406.328, 700.487 414.572, 702.988 420.283 C 706.177 427.567, 707.311 436.216, 706.726 448.780 C 706.112 461.945, 704.560 468.015, 699.781 475.946 C 693.887 485.729, 683.086 491.376, 667.038 493.066 C 662.342 493.560, 635.306 493.972, 606.957 493.982 L 555.415 494 554.175 498.636 C 552.169 506.136, 546.414 517.689, 539.580 527.937 C 532.401 538.700, 516.417 555.514, 507.750 561.416 L 502 565.332 502 632.166 L 502 699 544.500 699 L 587 699 587 632.500 L 587 566 609.750 566.035 L 632.500 566.071 637.090 573.785 C 673.556 635.075, 710.663 696.871, 711.830 698.250 C 713.201 699.871, 716.795 700, 760.655 700 C 790.413 700, 808 699.641, 808 699.035 C 808 698.504, 805.578 694.315, 802.618 689.727 C 777.935 651.465, 721 558.280, 721 556.144 C 721 555.760, 724.938 553.499, 729.750 551.119 C 754.304 538.977, 770.275 523.320, 780.875 501 C 790.370 481.006, 793.085 468.076, 793.161 442.500 C 793.238 416.316, 789.851 400.399, 780.194 381.573 C 762.388 346.861, 727.745 326.285, 679.928 322.021 C 669.644 321.104, 500 320.529, 500 321.411 M 1022.676 874.250 C 1022.337 878.237, 1021.783 883.075, 1021.445 885 C 1020.983 887.636, 1021.096 888.130, 1021.900 887 C 1022.488 886.175, 1022.976 883.813, 1022.985 881.750 C 1022.993 879.688, 1023.450 878, 1024 878 C 1024.550 878, 1025 875.525, 1025 872.500 C 1025 864.540, 1023.400 865.745, 1022.676 874.250 M 1.108 882.101 C 1.049 884.631, 1.398 888.006, 1.883 889.601 C 2.369 891.195, 3.322 894.525, 4.001 897 C 5.955 904.120, 6.023 904.310, 6.483 903.851 C 6.722 903.611, 6.216 900.734, 5.357 897.457 C 4.498 894.181, 3.215 888.350, 2.506 884.500 C 1.274 877.816, 1.211 877.707, 1.108 882.101 M 9.020 913.264 C 9.009 914.234, 9.407 915.809, 9.905 916.764 C 10.403 917.719, 13.325 923.675, 16.399 930 C 19.473 936.325, 22.935 942.625, 24.093 944 C 26.069 946.347, 26.060 946.256, 23.944 942.500 C 22.705 940.300, 20.795 936.991, 19.700 935.146 C 18.605 933.302, 15.758 927.227, 13.374 921.646 C 10.990 916.066, 9.030 912.294, 9.020 913.264 M 1005.012 933.232 C 1003.206 936.679, 1002.183 939.050, 1002.740 938.500 C 1004.242 937.017, 1009.158 927.824, 1008.696 927.362 C 1008.477 927.144, 1006.819 929.785, 1005.012 933.232 M 995.593 948.943 C 992.356 953.862, 985.965 961.849, 981.390 966.693 C 976.815 971.537, 973.056 975.883, 973.036 976.351 C 972.996 977.295, 985.658 963.948, 990.280 958.175 C 994.596 952.783, 1002.680 940, 1001.774 940 C 1001.611 940, 998.829 944.024, 995.593 948.943 M 965.393 982.875 C 957.164 990.699, 943.256 999.850, 928.651 1007.051 C 922.015 1010.323, 917.065 1013, 917.652 1013 C 919.660 1013, 933.801 1006.032, 941.976 1001.015 C 946.470 998.257, 950.564 996, 951.073 996 C 951.583 996, 952 995.647, 952 995.216 C 952 994.784, 953.443 993.579, 955.207 992.537 C 958.206 990.765, 973.095 977.045, 972 977.062 C 971.725 977.066, 968.752 979.682, 965.393 982.875 M 910.500 1014.624 C 902.651 1017.533, 891.866 1020.137, 879.775 1022.040 L 867.500 1023.972 876.991 1023.392 C 882.211 1023.073, 887.244 1022.404, 888.176 1021.906 C 889.107 1021.408, 891.002 1021, 892.387 1021 C 893.772 1021, 895.940 1020.597, 897.203 1020.104 C 898.466 1019.611, 901.525 1018.668, 904 1018.007 C 906.475 1017.346, 909.281 1016.399, 910.236 1015.903 C 911.191 1015.406, 912.627 1015, 913.427 1015 C 914.227 1015, 915.160 1014.550, 915.500 1014 C 916.302 1012.702, 915.370 1012.818, 910.500 1014.624 M 136 1021.940 C 136.825 1022.424, 141.325 1023.067, 146 1023.370 L 154.500 1023.920 146 1022.547 C 135.295 1020.819, 133.948 1020.737, 136 1021.940" stroke="none" fill="#ccf3d6" fill-rule="evenodd"/><path d="M 147.230 1.099 C 124.063 3.810, 96.660 13.749, 76.500 26.751 C 62.726 35.634, 44.078 53.007, 33.833 66.500 C 15.872 90.154, 3.953 120.309, 0.997 149.574 C 0.207 157.395, -0.004 262.237, 0.256 518.500 C 0.656 911.878, 0.106 877.762, 6.426 901.506 C 15.556 935.812, 37.449 967.459, 68.500 991.237 C 77.767 998.334, 94.576 1007.469, 108.667 1013.066 C 118.915 1017.137, 137.121 1021.487, 150 1022.941 C 157.960 1023.839, 246.857 1024.041, 517.500 1023.775 L 874.500 1023.423 885.670 1021.244 C 916.549 1015.218, 948.191 999.648, 967.675 980.892 C 986.320 962.944, 997.321 948.504, 1006.828 929.500 C 1015.003 913.158, 1021.219 891.546, 1022.665 874.432 C 1023.011 870.344, 1023.677 867, 1024.147 867 C 1024.616 867, 1025 706.404, 1025 510 C 1025 272.667, 1024.665 153, 1024 153 C 1023.450 153, 1022.999 151.762, 1022.997 150.250 C 1022.991 144.926, 1019.850 129.621, 1016.405 118.124 C 1009.463 94.955, 996.100 71.855, 979.403 54.155 C 953.257 26.439, 923.483 10.024, 885.376 2.316 C 876.942 0.610, 858.504 0.514, 515.500 0.385 C 316.950 0.310, 151.228 0.632, 147.230 1.099 M 0.494 511 C 0.494 707.625, 0.609 788.063, 0.750 689.750 C 0.891 591.438, 0.891 430.563, 0.750 332.250 C 0.609 233.938, 0.494 314.375, 0.494 511 M 245.976 432.187 C 245.963 493.409, 245.892 550.700, 245.817 559.500 C 245.743 568.300, 245.753 603.288, 245.841 637.250 L 246 699 289 699 L 332 699 332 548.463 L 332 397.925 378.750 398.220 C 424.313 398.508, 425.670 398.573, 432.208 400.785 C 449.441 406.615, 457.642 419.229, 458.682 441.500 C 459.775 464.933, 452.528 481.574, 438 488.992 C 428.568 493.808, 424.889 494.298, 393.500 494.912 L 363.500 495.500 363.238 532.750 L 362.976 570 391.738 569.989 C 441.134 569.971, 463.020 566.251, 485.700 554.019 C 504.755 543.743, 519.888 528.024, 530.005 508 C 540.439 487.348, 545.493 457.579, 543.083 430.968 C 540.054 397.514, 530.370 374.562, 511.343 355.741 C 497.231 341.781, 486.633 335.461, 465.755 328.556 C 444.428 321.503, 447.072 321.658, 341.250 321.245 L 246 320.873 245.976 432.187 M 500 321.411 C 500 321.602, 503.487 324.383, 507.750 327.591 C 517.922 335.247, 531.327 348.942, 537.765 358.254 C 544.756 368.367, 552.337 383.371, 554.508 391.392 L 556.297 398 612.898 398.015 C 673.899 398.031, 676.594 398.227, 686.789 403.393 C 692.581 406.328, 700.487 414.572, 702.988 420.283 C 706.177 427.567, 707.311 436.216, 706.726 448.780 C 706.112 461.945, 704.560 468.015, 699.781 475.946 C 693.887 485.729, 683.086 491.376, 667.038 493.066 C 662.342 493.560, 635.306 493.972, 606.957 493.982 L 555.415 494 554.175 498.636 C 552.169 506.136, 546.414 517.689, 539.580 527.937 C 532.401 538.700, 516.417 555.514, 507.750 561.416 L 502 565.332 502 632.166 L 502 699 544.500 699 L 587 699 587 632.500 L 587 566 609.750 566.035 L 632.500 566.071 637.090 573.785 C 673.556 635.075, 710.663 696.871, 711.830 698.250 C 713.201 699.871, 716.795 700, 760.655 700 C 790.413 700, 808 699.641, 808 699.035 C 808 698.504, 805.578 694.315, 802.618 689.727 C 777.935 651.465, 721 558.280, 721 556.144 C 721 555.760, 724.938 553.499, 729.750 551.119 C 754.304 538.977, 770.275 523.320, 780.875 501 C 790.370 481.006, 793.085 468.076, 793.161 442.500 C 793.238 416.316, 789.851 400.399, 780.194 381.573 C 762.388 346.861, 727.745 326.285, 679.928 322.021 C 669.644 321.104, 500 320.529, 500 321.411" stroke="none" fill="#4c4c4c" fill-rule="evenodd"/></svg>